# Tiled2Unity generated file. Do not modify by hand.
# Wavefront file for 'Home_mesh_0005.obj'

# Vertices (Count = 64)
v -5 -1 0
v -6 -1 0
v -6 0 0
v -5 0 0
v -7 -1 0
v -8 -1 0
v -8 0 0
v -7 0 0
v -5 -2 0
v -6 -2 0
v -6 -1 0
v -5 -1 0
v -7 -2 0
v -8 -2 0
v -8 -1 0
v -7 -1 0
v -2 -3 0
v -3 -3 0
v -3 -2 0
v -2 -2 0
v -3 -3 0
v -4 -3 0
v -4 -2 0
v -3 -2 0
v -7 -5 0
v -8 -5 0
v -8 -4 0
v -7 -4 0
v -7 -6 0
v -8 -6 0
v -8 -5 0
v -7 -5 0
v -2 -9 0
v -3 -9 0
v -3 -8 0
v -2 -8 0
v -3 -9 0
v -4 -9 0
v -4 -8 0
v -3 -8 0
v -6 -9 0
v -7 -9 0
v -7 -8 0
v -6 -8 0
v -7 -9 0
v -8 -9 0
v -8 -8 0
v -7 -8 0
v -2 -10 0
v -3 -10 0
v -3 -9 0
v -2 -9 0
v -3 -10 0
v -4 -10 0
v -4 -9 0
v -3 -9 0
v -6 -10 0
v -7 -10 0
v -7 -9 0
v -6 -9 0
v -7 -10 0
v -8 -10 0
v -8 -9 0
v -7 -9 0

# Texture cooridinates (Count = 33)
vt 0.05 0.56
vt 0.075 0.56
vt 0.075 0.6
vt 0.05 0.6
vt 0.1 0.36
vt 0.125 0.36
vt 0.125 0.4
vt 0.1 0.4
vt 0.05 0.52
vt 0.075 0.52
vt 0.1 0.32
vt 0.125 0.32
vt 0.25 0.48
vt 0.275 0.48
vt 0.275 0.52
vt 0.25 0.52
vt 0.3 0.48
vt 0.3 0.52
vt 0.2 0.48
vt 0.225 0.48
vt 0.225 0.52
vt 0.2 0.52
vt 0.2 0.44
vt 0.225 0.44
vt 0.225 0.8
vt 0.25 0.8
vt 0.25 0.84
vt 0.225 0.84
vt 0.275 0.8
vt 0.275 0.84
vt 0.225 0.76
vt 0.25 0.76
vt 0.275 0.76

# Normal
vn 0 0 -1

# Mesh description
g Home_mesh_0005

# Faces
f 1/1/1 2/2/1 3/3/1 4/4/1
f 5/5/1 6/6/1 7/7/1 8/8/1
f 9/9/1 10/10/1 11/2/1 12/1/1
f 13/11/1 14/12/1 15/6/1 16/5/1
f 17/13/1 18/14/1 19/15/1 20/16/1
f 21/14/1 22/17/1 23/18/1 24/15/1
f 25/19/1 26/20/1 27/21/1 28/22/1
f 29/23/1 30/24/1 31/20/1 32/19/1
f 33/25/1 34/26/1 35/27/1 36/28/1
f 37/26/1 38/29/1 39/30/1 40/27/1
f 41/25/1 42/26/1 43/27/1 44/28/1
f 45/26/1 46/29/1 47/30/1 48/27/1
f 49/31/1 50/32/1 51/26/1 52/25/1
f 53/32/1 54/33/1 55/29/1 56/26/1
f 57/31/1 58/32/1 59/26/1 60/25/1
f 61/32/1 62/33/1 63/29/1 64/26/1

