# Tiled2Unity generated file. Do not modify by hand.
# Wavefront file for 'Home_mesh_0004.obj'

# Vertices (Count = 60)
v -2 -1 0
v -3 -1 0
v -3 0 0
v -2 0 0
v -3 -1 0
v -4 -1 0
v -4 0 0
v -3 0 0
v -2 -2 0
v -3 -2 0
v -3 -1 0
v -2 -1 0
v -3 -2 0
v -4 -2 0
v -4 -1 0
v -3 -1 0
v -2 -3 0
v -3 -3 0
v -3 -2 0
v -2 -2 0
v -3 -3 0
v -4 -3 0
v -4 -2 0
v -3 -2 0
v -6 -3 0
v -7 -3 0
v -7 -2 0
v -6 -2 0
v -7 -3 0
v -8 -3 0
v -8 -2 0
v -7 -2 0
v -6 -4 0
v -7 -4 0
v -7 -3 0
v -6 -3 0
v -7 -4 0
v -8 -4 0
v -8 -3 0
v -7 -3 0
v -2 -5 0
v -3 -5 0
v -3 -4 0
v -2 -4 0
v -6 -5 0
v -7 -5 0
v -7 -4 0
v -6 -4 0
v -7 -5 0
v -8 -5 0
v -8 -4 0
v -7 -4 0
v -2 -6 0
v -3 -6 0
v -3 -5 0
v -2 -5 0
v -2 -7 0
v -3 -7 0
v -3 -6 0
v -2 -6 0

# Texture cooridinates (Count = 32)
vt 0.3 0.56
vt 0.325 0.56
vt 0.325 0.6
vt 0.3 0.6
vt 0.35 0.56
vt 0.35 0.6
vt 0.3 0.52
vt 0.325 0.52
vt 0.35 0.52
vt 0.3 0.48
vt 0.325 0.48
vt 0.35 0.48
vt 0.5 0.92
vt 0.525 0.92
vt 0.525 0.96
vt 0.5 0.96
vt 0.55 0.92
vt 0.55 0.96
vt 0.5 0.88
vt 0.525 0.88
vt 0.55 0.88
vt 0.425 0.8
vt 0.45 0.8
vt 0.45 0.84
vt 0.425 0.84
vt 0.5 0.84
vt 0.525 0.84
vt 0.55 0.84
vt 0.425 0.76
vt 0.45 0.76
vt 0.425 0.72
vt 0.45 0.72

# Normal
vn 0 0 -1

# Mesh description
g Home_mesh_0004

# Faces
f 1/1/1 2/2/1 3/3/1 4/4/1
f 5/2/1 6/5/1 7/6/1 8/3/1
f 9/7/1 10/8/1 11/2/1 12/1/1
f 13/8/1 14/9/1 15/5/1 16/2/1
f 17/10/1 18/11/1 19/8/1 20/7/1
f 21/11/1 22/12/1 23/9/1 24/8/1
f 25/13/1 26/14/1 27/15/1 28/16/1
f 29/14/1 30/17/1 31/18/1 32/15/1
f 33/19/1 34/20/1 35/14/1 36/13/1
f 37/20/1 38/21/1 39/17/1 40/14/1
f 41/22/1 42/23/1 43/24/1 44/25/1
f 45/26/1 46/27/1 47/20/1 48/19/1
f 49/27/1 50/28/1 51/21/1 52/20/1
f 53/29/1 54/30/1 55/23/1 56/22/1
f 57/31/1 58/32/1 59/30/1 60/29/1

