# Tiled2Unity generated file. Do not modify by hand.
# Wavefront file for 'Town_mesh_0006.obj'

# Vertices (Count = 72)
v -3 -3 0
v -4 -3 0
v -4 -2 0
v -3 -2 0
v -6 -8 0
v -7 -8 0
v -7 -7 0
v -6 -7 0
v -12 -8 0
v -13 -8 0
v -13 -7 0
v -12 -7 0
v -16 -9 0
v -17 -9 0
v -17 -8 0
v -16 -8 0
v -10 -10 0
v -11 -10 0
v -11 -9 0
v -10 -9 0
v -14 -10 0
v -15 -10 0
v -15 -9 0
v -14 -9 0
v -2 -13 0
v -3 -13 0
v -3 -12 0
v -2 -12 0
v -3 -13 0
v -4 -13 0
v -4 -12 0
v -3 -12 0
v -16 -13 0
v -17 -13 0
v -17 -12 0
v -16 -12 0
v -17 -13 0
v -18 -13 0
v -18 -12 0
v -17 -12 0
v -2 -14 0
v -3 -14 0
v -3 -13 0
v -2 -13 0
v -3 -14 0
v -4 -14 0
v -4 -13 0
v -3 -13 0
v -16 -14 0
v -17 -14 0
v -17 -13 0
v -16 -13 0
v -17 -14 0
v -18 -14 0
v -18 -13 0
v -17 -13 0
v -13 -15 0
v -14 -15 0
v -14 -14 0
v -13 -14 0
v -5 -16 0
v -6 -16 0
v -6 -15 0
v -5 -15 0
v -15 -18 0
v -16 -18 0
v -16 -17 0
v -15 -17 0
v -4 -19 0
v -5 -19 0
v -5 -18 0
v -4 -18 0

# Texture cooridinates (Count = 34)
vt 0.1 0.7222222
vt 0.125 0.7222222
vt 0.125 0.75
vt 0.1 0.75
vt 0.05 0.6388889
vt 0.075 0.6388889
vt 0.075 0.6666667
vt 0.05 0.6666667
vt 0.1 0.6666667
vt 0.1 0.6944444
vt 0.075 0.6944444
vt 0.15 0.7222222
vt 0.175 0.7222222
vt 0.175 0.75
vt 0.15 0.75
vt 0.1 0.9444444
vt 0.125 0.9444444
vt 0.125 0.9722222
vt 0.1 0.9722222
vt 0.15 0.9444444
vt 0.15 0.9722222
vt 0.225 0.6666667
vt 0.25 0.6666667
vt 0.25 0.6944444
vt 0.225 0.6944444
vt 0.275 0.6666667
vt 0.275 0.6944444
vt 0.1 0.9166667
vt 0.125 0.9166667
vt 0.15 0.9166667
vt 0.225 0.6388889
vt 0.25 0.6388889
vt 0.275 0.6388889
vt 0.1 0.6388889

# Normal
vn 0 0 -1

# Mesh description
g Town_mesh_0006

# Faces
f 1/1/1 2/2/1 3/3/1 4/4/1
f 5/5/1 6/6/1 7/7/1 8/8/1
f 9/7/1 10/9/1 11/10/1 12/11/1
f 13/12/1 14/13/1 15/14/1 16/15/1
f 17/12/1 18/13/1 19/14/1 20/15/1
f 21/1/1 22/2/1 23/3/1 24/4/1
f 25/16/1 26/17/1 27/18/1 28/19/1
f 29/17/1 30/20/1 31/21/1 32/18/1
f 33/22/1 34/23/1 35/24/1 36/25/1
f 37/23/1 38/26/1 39/27/1 40/24/1
f 41/28/1 42/29/1 43/17/1 44/16/1
f 45/29/1 46/30/1 47/20/1 48/17/1
f 49/31/1 50/32/1 51/23/1 52/22/1
f 53/32/1 54/33/1 55/26/1 56/23/1
f 57/6/1 58/34/1 59/9/1 60/7/1
f 61/6/1 62/34/1 63/9/1 64/7/1
f 65/5/1 66/6/1 67/7/1 68/8/1
f 69/5/1 70/6/1 71/7/1 72/8/1

